<?xml version="1.0" encoding="UTF-8" standalone="no"?>
<!DOCTYPE svg PUBLIC "-//W3C//DTD SVG 1.1//EN"
 "http://www.w3.org/Graphics/SVG/1.1/DTD/svg11.dtd">
<!-- Generated by graphviz version 12.2.1 (20241206.2353)
 -->
<!-- Title: FlowNetworkArchitecture Pages: 1 -->
<svg width="869pt" height="891pt"
 viewBox="0.00 0.00 869.00 891.00" xmlns="http://www.w3.org/2000/svg" xmlns:xlink="http://www.w3.org/1999/xlink">
<g id="graph0" class="graph" transform="scale(1 1) rotate(0) translate(4 887)">
<title>FlowNetworkArchitecture</title>
<polygon fill="white" stroke="none" points="-4,4 -4,-887 865,-887 865,4 -4,4"/>
<g id="clust1" class="cluster">
<title>cluster_input</title>
<polygon fill="lightgrey" stroke="lightgrey" points="347,-660 347,-875 853,-875 853,-660 347,-660"/>
<text text-anchor="middle" x="600" y="-857.7" font-family="Times New Roman,serif" font-size="14.00">SYSTEM WEJŚCIA (Preprocessing)</text>
</g>
<g id="clust2" class="cluster">
<title>cluster_model</title>
<polygon fill="none" stroke="black" points="20,-270.5 20,-627.75 534,-627.75 534,-270.5 20,-270.5"/>
<text text-anchor="middle" x="277" y="-610.45" font-family="Times New Roman,serif" font-size="14.00">MODEL: ENHANCED FLOW TRANSFORMER (v3.1)</text>
</g>
<g id="clust3" class="cluster">
<title>cluster_layers</title>
<polygon fill="none" stroke="blue" points="28,-278.5 28,-595.25 364,-595.25 364,-278.5 28,-278.5"/>
<text text-anchor="middle" x="196" y="-577.95" font-family="Times New Roman,serif" font-size="14.00">ENHANCED FLOW LAYERS (Linear O(N) Complexity)</text>
</g>
<g id="clust4" class="cluster">
<title>cluster_loss</title>
<polygon fill="moccasin" stroke="moccasin" points="8,-8 8,-253.5 545,-253.5 545,-8 8,-8"/>
<text text-anchor="middle" x="276.5" y="-236.2" font-family="Times New Roman,serif" font-size="14.00">MULTITASK FLOW LOSS (Cognitive Tension Engine)</text>
</g>
<!-- input_data -->
<g id="node1" class="node">
<title>input_data</title>
<polygon fill="none" stroke="black" points="355.25,-774.25 355.25,-842 486.75,-842 486.75,-774.25 355.25,-774.25"/>
<text text-anchor="middle" x="421" y="-826.6" font-family="Segoe UI, Helvetica" font-size="12.00">Surowe Dane (.txt)</text>
<polyline fill="none" stroke="black" points="355.25,-816.75 486.75,-816.75"/>
<text text-anchor="middle" x="421" y="-801.35" font-family="Segoe UI, Helvetica" font-size="12.00">Auto&#45;Sanitize Pipeline</text>
<text text-anchor="middle" x="421" y="-784.1" font-family="Segoe UI, Helvetica" font-size="12.00">(Regex Normalization)</text>
</g>
<!-- tokenizer -->
<g id="node2" class="node">
<title>tokenizer</title>
<polygon fill="none" stroke="black" points="377.12,-668.5 377.12,-736.25 498.88,-736.25 498.88,-668.5 377.12,-668.5"/>
<text text-anchor="middle" x="438" y="-720.85" font-family="Segoe UI, Helvetica" font-size="12.00">Char&#45;level Tokenizer</text>
<polyline fill="none" stroke="black" points="377.12,-711 498.88,-711"/>
<text text-anchor="middle" x="438" y="-695.6" font-family="Segoe UI, Helvetica" font-size="12.00">O(1) STOI Mapping</text>
<text text-anchor="middle" x="438" y="-678.35" font-family="Segoe UI, Helvetica" font-size="12.00">(No BPE needed)</text>
</g>
<!-- input_data&#45;&gt;tokenizer -->
<g id="edge1" class="edge">
<title>input_data&#45;&gt;tokenizer</title>
<path fill="none" stroke="black" d="M426.43,-774.01C427.79,-765.68 429.28,-756.61 430.72,-747.82"/>
<polygon fill="black" stroke="black" points="434.16,-748.46 432.32,-738.02 427.25,-747.32 434.16,-748.46"/>
</g>
<!-- rope -->
<g id="node5" class="node">
<title>rope</title>
<polygon fill="white" stroke="white" points="372,-494.5 372,-562.25 526,-562.25 526,-494.5 372,-494.5"/>
<text text-anchor="middle" x="449" y="-546.85" font-family="Segoe UI, Helvetica" font-size="12.00">RoPE Embeddings</text>
<polyline fill="none" stroke="white" points="372,-537 526,-537"/>
<text text-anchor="middle" x="449" y="-521.6" font-family="Segoe UI, Helvetica" font-size="12.00">Rotary Positional Encoding</text>
<text text-anchor="middle" x="449" y="-504.35" font-family="Segoe UI, Helvetica" font-size="12.00">Supports 16k+ context</text>
</g>
<!-- tokenizer&#45;&gt;rope -->
<g id="edge2" class="edge">
<title>tokenizer&#45;&gt;rope</title>
<path fill="none" stroke="black" d="M440.12,-668.21C441.83,-641.41 444.26,-603.43 446.15,-573.97"/>
<polygon fill="black" stroke="black" points="449.62,-574.44 446.77,-564.24 442.64,-574 449.62,-574.44"/>
</g>
<!-- scaler -->
<g id="node3" class="node">
<title>scaler</title>
<polygon fill="none" stroke="black" points="505,-774.25 505,-842 665,-842 665,-774.25 505,-774.25"/>
<text text-anchor="middle" x="585" y="-826.6" font-family="Segoe UI, Helvetica" font-size="12.00">Adaptive Auto&#45;Scaler</text>
<polyline fill="none" stroke="black" points="505,-816.75 665,-816.75"/>
<text text-anchor="middle" x="585" y="-801.35" font-family="Segoe UI, Helvetica" font-size="12.00">Determines d_model, layers</text>
<text text-anchor="middle" x="585" y="-784.1" font-family="Segoe UI, Helvetica" font-size="12.00">based on data size</text>
</g>
<!-- cluster_layers -->
<g id="node13" class="node">
<title>cluster_layers</title>
<polygon fill="none" stroke="black" points="541.75,-391.38 541.75,-427.38 628.25,-427.38 628.25,-391.38 541.75,-391.38"/>
<text text-anchor="middle" x="585" y="-406.6" font-family="Segoe UI, Helvetica" font-size="12.00">cluster_layers</text>
</g>
<!-- scaler&#45;&gt;cluster_layers -->
<g id="edge3" class="edge">
<title>scaler&#45;&gt;cluster_layers</title>
<path fill="none" stroke="black" d="M585,-773.98C585,-697.57 585,-510.15 585,-438.69"/>
<polygon fill="black" stroke="black" points="588.5,-439.01 585,-429.01 581.5,-439.01 588.5,-439.01"/>
<text text-anchor="middle" x="619.12" y="-640.5" font-family="Segoe UI, Helvetica" font-size="10.00">Set dimensions</text>
</g>
<!-- lexical_mask -->
<g id="node4" class="node">
<title>lexical_mask</title>
<polygon fill="none" stroke="orange" stroke-width="2" points="683.25,-774.25 683.25,-842 844.75,-842 844.75,-774.25 683.25,-774.25"/>
<text text-anchor="middle" x="764" y="-826.6" font-family="Segoe UI, Helvetica" font-size="12.00">TRIGRAM MASK (CPU/GPU)</text>
<polyline fill="none" stroke="orange" stroke-width="2" points="683.25,-816.75 844.75,-816.75"/>
<text text-anchor="middle" x="764" y="-801.35" font-family="Segoe UI, Helvetica" font-size="12.00">3D Tensor of valid</text>
<text text-anchor="middle" x="764" y="-784.1" font-family="Segoe UI, Helvetica" font-size="12.00">Polish character sequences</text>
</g>
<!-- hallucination_penalty -->
<g id="node10" class="node">
<title>hallucination_penalty</title>
<polygon fill="none" stroke="red" stroke-width="2" points="380.88,-152.75 380.88,-220.5 537.12,-220.5 537.12,-152.75 380.88,-152.75"/>
<text text-anchor="middle" x="459" y="-205.1" font-family="Segoe UI, Helvetica" font-size="12.00">Lexical Critic (Penalty x25)</text>
<polyline fill="none" stroke="red" stroke-width="2" points="380.88,-195.25 537.12,-195.25"/>
<text text-anchor="middle" x="459" y="-179.85" font-family="Segoe UI, Helvetica" font-size="12.00">Uses TRIGRAM MASK to</text>
<text text-anchor="middle" x="459" y="-162.6" font-family="Segoe UI, Helvetica" font-size="12.00">kill character&#45;level garbage</text>
</g>
<!-- lexical_mask&#45;&gt;hallucination_penalty -->
<g id="edge4" class="edge">
<title>lexical_mask&#45;&gt;hallucination_penalty</title>
<path fill="none" stroke="black" d="M739.72,-773.84C727.81,-754.31 716,-728.58 716,-703.38 716,-703.38 716,-703.38 716,-311.25 716,-234.96 622.89,-205.72 548.76,-194.53"/>
<polygon fill="black" stroke="black" points="549.39,-191.09 539,-193.16 548.42,-198.02 549.39,-191.09"/>
<text text-anchor="middle" x="750.12" y="-466.5" font-family="Segoe UI, Helvetica" font-size="10.00">Validation Data</text>
</g>
<!-- rope&#45;&gt;cluster_layers -->
<g id="edge5" class="edge">
<title>rope&#45;&gt;cluster_layers</title>
<path fill="none" stroke="black" d="M487.61,-494.16C509.4,-475.41 536.18,-452.37 556.14,-435.2"/>
<polygon fill="black" stroke="black" points="558.34,-437.93 563.64,-428.75 553.78,-432.62 558.34,-437.93"/>
</g>
<!-- router -->
<g id="node6" class="node">
<title>router</title>
<polygon fill="white" stroke="white" points="190.12,-494.5 190.12,-562.25 353.88,-562.25 353.88,-494.5 190.12,-494.5"/>
<text text-anchor="middle" x="272" y="-546.85" font-family="Segoe UI, Helvetica" font-size="12.00">Context&#45;Aware Flow Router</text>
<polyline fill="none" stroke="white" points="190.12,-537 353.88,-537"/>
<text text-anchor="middle" x="272" y="-521.6" font-family="Segoe UI, Helvetica" font-size="12.00">Routes info based on</text>
<text text-anchor="middle" x="272" y="-504.35" font-family="Segoe UI, Helvetica" font-size="12.00">Semantic/Positional Patterns</text>
</g>
<!-- linear_attention -->
<g id="node7" class="node">
<title>linear_attention</title>
<polygon fill="white" stroke="white" points="206.38,-375.5 206.38,-443.25 341.62,-443.25 341.62,-375.5 206.38,-375.5"/>
<text text-anchor="middle" x="274" y="-427.85" font-family="Segoe UI, Helvetica" font-size="12.00">Linear Value Mixing</text>
<polyline fill="none" stroke="white" points="206.38,-418 341.62,-418"/>
<text text-anchor="middle" x="274" y="-402.6" font-family="Segoe UI, Helvetica" font-size="12.00">Kernel&#45;based Attention</text>
<text text-anchor="middle" x="274" y="-385.35" font-family="Segoe UI, Helvetica" font-size="12.00">O(N * d^2) vs O(N^2)</text>
</g>
<!-- router&#45;&gt;linear_attention -->
<g id="edge6" class="edge">
<title>router&#45;&gt;linear_attention</title>
<path fill="none" stroke="black" d="M272.57,-494.16C272.78,-481.93 273.02,-467.88 273.24,-454.82"/>
<polygon fill="black" stroke="black" points="276.73,-455.24 273.4,-445.19 269.73,-455.12 276.73,-455.24"/>
</g>
<!-- gate -->
<g id="node8" class="node">
<title>gate</title>
<polygon fill="white" stroke="white" points="199.75,-287 199.75,-337.5 352.25,-337.5 352.25,-287 199.75,-287"/>
<text text-anchor="middle" x="276" y="-322.1" font-family="Segoe UI, Helvetica" font-size="12.00">SwiGLU Gating</text>
<polyline fill="none" stroke="white" points="199.75,-312.25 352.25,-312.25"/>
<text text-anchor="middle" x="276" y="-296.85" font-family="Segoe UI, Helvetica" font-size="12.00">SiLU&#45;based Dynamic Filter</text>
</g>
<!-- linear_attention&#45;&gt;gate -->
<g id="edge7" class="edge">
<title>linear_attention&#45;&gt;gate</title>
<path fill="none" stroke="black" d="M274.7,-375.1C274.87,-366.8 275.06,-357.86 275.24,-349.42"/>
<polygon fill="black" stroke="black" points="278.74,-349.54 275.45,-339.47 271.74,-349.39 278.74,-349.54"/>
</g>
<!-- task_loss -->
<g id="node9" class="node">
<title>task_loss</title>
<polygon fill="none" stroke="black" points="188.88,-161.38 188.88,-211.88 363.12,-211.88 363.12,-161.38 188.88,-161.38"/>
<text text-anchor="middle" x="276" y="-196.47" font-family="Segoe UI, Helvetica" font-size="12.00">Cross&#45;Entropy Loss</text>
<polyline fill="none" stroke="black" points="188.88,-186.62 363.12,-186.62"/>
<text text-anchor="middle" x="276" y="-171.22" font-family="Segoe UI, Helvetica" font-size="12.00">Main Language Modeling Task</text>
</g>
<!-- gate&#45;&gt;task_loss -->
<g id="edge8" class="edge">
<title>gate&#45;&gt;task_loss</title>
<path fill="none" stroke="black" d="M276,-286.53C276,-268.51 276,-243.8 276,-223.6"/>
<polygon fill="black" stroke="black" points="279.5,-223.82 276,-213.82 272.5,-223.82 279.5,-223.82"/>
</g>
<!-- gate&#45;&gt;hallucination_penalty -->
<g id="edge9" class="edge">
<title>gate&#45;&gt;hallucination_penalty</title>
<path fill="none" stroke="black" d="M319.14,-286.62C335.9,-276.72 355.09,-264.94 372,-253.5 383.89,-245.46 396.36,-236.41 408.02,-227.65"/>
<polygon fill="black" stroke="black" points="410.12,-230.45 415.97,-221.63 405.89,-224.87 410.12,-230.45"/>
</g>
<!-- boundary_loss -->
<g id="node11" class="node">
<title>boundary_loss</title>
<polygon fill="none" stroke="black" points="362.62,-16.5 362.62,-101.5 487.38,-101.5 487.38,-16.5 362.62,-16.5"/>
<text text-anchor="middle" x="425" y="-86.1" font-family="Segoe UI, Helvetica" font-size="12.00">Boundary Loss (BCE)</text>
<polyline fill="none" stroke="black" points="362.62,-76.25 487.38,-76.25"/>
<text text-anchor="middle" x="425" y="-60.85" font-family="Segoe UI, Helvetica" font-size="12.00">Identifies Spaces and</text>
<text text-anchor="middle" x="425" y="-43.6" font-family="Segoe UI, Helvetica" font-size="12.00">Punctuation [. ! ? </text>
<text text-anchor="middle" x="425" y="-26.35" font-family="Segoe UI, Helvetica" font-size="12.00">]</text>
</g>
<!-- gate&#45;&gt;boundary_loss -->
<g id="edge10" class="edge">
<title>gate&#45;&gt;boundary_loss</title>
<path fill="none" stroke="black" d="M352.59,-305.42C423.69,-298.23 522.04,-283.13 546,-253.5 574.3,-218.51 565.97,-192.58 546,-152.25 535.22,-130.48 516.58,-112.45 497.11,-98.28"/>
<polygon fill="black" stroke="black" points="499.28,-95.53 489.07,-92.7 495.29,-101.28 499.28,-95.53"/>
</g>
<!-- dissonance -->
<g id="node12" class="node">
<title>dissonance</title>
<polygon fill="none" stroke="black" points="15.62,-152.75 15.62,-220.5 170.38,-220.5 170.38,-152.75 15.62,-152.75"/>
<text text-anchor="middle" x="93" y="-205.1" font-family="Segoe UI, Helvetica" font-size="12.00">Cognitive Dissonance</text>
<polyline fill="none" stroke="black" points="15.62,-195.25 170.38,-195.25"/>
<text text-anchor="middle" x="93" y="-179.85" font-family="Segoe UI, Helvetica" font-size="12.00">Golden Ratio (0.61)</text>
<text text-anchor="middle" x="93" y="-162.6" font-family="Segoe UI, Helvetica" font-size="12.00">Creative Tension Regulator</text>
</g>
<!-- gate&#45;&gt;dissonance -->
<g id="edge11" class="edge">
<title>gate&#45;&gt;dissonance</title>
<path fill="none" stroke="black" d="M232.86,-286.62C216.1,-276.72 196.91,-264.94 180,-253.5 168.11,-245.46 155.64,-236.41 143.98,-227.65"/>
<polygon fill="black" stroke="black" points="146.11,-224.87 136.03,-221.63 141.88,-230.45 146.11,-224.87"/>
</g>
<!-- task_loss&#45;&gt;boundary_loss -->
<g id="edge12" class="edge">
<title>task_loss&#45;&gt;boundary_loss</title>
<path fill="none" stroke="black" stroke-dasharray="1,5" d="M305.08,-161.11C322.65,-146.29 345.66,-126.89 366.83,-109.05"/>
<polygon fill="black" stroke="black" points="368.91,-111.87 374.3,-102.75 364.39,-106.52 368.91,-111.87"/>
<text text-anchor="middle" x="382.38" y="-124.75" font-family="Segoe UI, Helvetica" font-size="10.00">Auxiliary Tasks</text>
</g>
</g>
</svg>
